<?xml version="1.0" encoding="UTF-8"?>
<svg width="317px" height="104px" viewBox="0 0 317 104" version="1.1" xmlns="http://www.w3.org/2000/svg" xmlns:xlink="http://www.w3.org/1999/xlink">
    <!-- Generator: Sketch 43.1 (39012) - http://www.bohemiancoding.com/sketch -->
    <title>Combined Shape</title>
    <desc>Created with Sketch.</desc>
    <defs>
        <path d="M188.120788,20.5859321 C188.120788,31.7908468 179.147099,40.9067882 168.116765,40.9067882 L93.0872478,40.9067882 C91.3822816,40.9067882 90,39.5025946 90,37.7706011 C90,36.038335 91.3822816,34.634414 93.0872478,34.634414 L168.116765,34.634414 C172.048845,34.634414 175.599717,32.9558722 178.120253,30.2710233 L104.899326,30.2710233 C103.861474,30.2710233 103.020132,29.4163441 103.020132,28.3620399 C103.020132,27.3074629 103.861474,26.4530564 104.899326,26.4530564 L180.677568,26.4530564 C181.25636,25.1800371 181.651528,23.8052964 181.831662,22.3623776 L99.2617434,22.3623776 C98.2238912,22.3623776 97.3825491,21.5076984 97.3825491,20.4533941 C97.3825491,19.3988171 98.2238912,18.5444107 99.2617434,18.5444107 L181.831662,18.5444107 C181.638642,16.9984068 181.20079,15.529035 180.553004,14.1810199 L104.899326,14.1810199 C103.861474,14.1810199 103.020132,13.3263408 103.020132,12.2720365 C103.020132,11.2174595 103.861474,10.363053 104.899326,10.363053 L177.861461,10.363053 C175.359717,7.83637707 171.914885,6.2723742 168.116765,6.2723742 L124.765095,6.2723742 C123.060128,6.2723742 121.677847,4.86818051 121.677847,3.1361871 C121.677847,1.40392097 123.060128,0 124.765095,0 L168.116765,0 C179.147099,0 188.120788,9.11566869 188.120788,20.3205834 L188.120788,20.5859321 Z M192.959821,45.5358549 C194.208948,46.8050562 194.208948,48.8626677 192.959821,50.1321417 C192.335123,50.7667423 191.516331,51.0839063 190.69754,51.0839063 C189.878748,51.0839063 189.060224,50.7667423 188.435258,50.1321417 L181.528145,43.1152639 C180.279018,41.8460626 180.279018,39.7884512 181.528145,38.5192499 C182.777541,37.2497759 184.803044,37.2497759 186.052708,38.5192499 L192.959821,45.5358549 Z M17.17,68.95 L17.17,71.515 L4.525,71.515 L4.525,83.125 L15.82,83.125 L15.82,85.645 L4.525,85.645 L4.525,97.48 L17.17,97.48 L17.17,100 L1.375,100 L1.375,68.95 L17.17,68.95 Z M23.2034615,100 L23.2034615,66.7 L26.3534615,66.7 L26.3534615,100 L23.2034615,100 Z M31.8919231,82.315 C31.8919231,80.2149895 32.7769142,78.4375073 34.5469231,76.9825 C36.3169319,75.5274927 38.6419087,74.8 41.5219231,74.8 C44.4019375,74.8 46.6894146,75.5124929 48.3844231,76.9375 C50.0794315,78.3625071 50.9869225,80.3049877 51.1069231,82.765 L45.8419231,82.765 C45.7519226,81.5349939 45.3244269,80.5750035 44.5594231,79.885 C43.7944192,79.1949966 42.72193,78.85 41.3419231,78.85 C39.9619162,78.85 38.881927,79.1574969 38.1019231,79.7725 C37.3219192,80.3875031 36.9319231,81.197495 36.9319231,82.2025 C36.9319231,83.207505 37.4269181,83.9949972 38.4169231,84.565 C39.406928,85.1350029 40.6144159,85.5549987 42.0394231,85.825 C43.4644302,86.0950014 44.8894159,86.4249981 46.3144231,86.815 C47.7394302,87.205002 48.9469181,87.9174948 49.9369231,88.9525 C50.926928,89.9875052 51.4219231,91.3749913 51.4219231,93.115 C51.4219231,95.2750108 50.5144321,97.0299933 48.6994231,98.38 C46.884414,99.7300068 44.5519373,100.405 41.7019231,100.405 C38.8519088,100.405 36.5419319,99.7150069 34.7719231,98.335 C33.0019142,96.9549931 32.026924,94.9900128 31.8469231,92.44 L37.1569231,92.44 C37.2469235,93.6700062 37.696919,94.6299966 38.5069231,95.32 C39.3169271,96.0100035 40.4194161,96.355 41.8144231,96.355 C43.20943,96.355 44.3194189,96.0475031 45.1444231,95.4325 C45.9694272,94.8174969 46.3819231,94.0000051 46.3819231,92.98 C46.3819231,91.9599949 45.886928,91.1650029 44.8969231,90.595 C43.9069181,90.0249972 42.6994302,89.5975014 41.2744231,89.3125 C39.8494159,89.0274986 38.4244302,88.6975019 36.9994231,88.3225 C35.5744159,87.9474981 34.366928,87.265005 33.3769231,86.275 C32.3869181,85.2849951 31.8919231,83.9650083 31.8919231,82.315 Z M58.8053846,96.8725 C56.4653729,94.5174882 55.2953846,91.4275191 55.2953846,87.6025 C55.2953846,83.7774809 56.5028725,80.6875118 58.9178846,78.3325 C61.3328967,75.9774882 64.3403666,74.8 67.9403846,74.8 C71.5404026,74.8 74.5478725,75.9774882 76.9628846,78.3325 C79.3778967,80.6875118 80.5853846,83.769981 80.5853846,87.58 C80.5853846,91.3900191 79.347897,94.4799882 76.8728846,96.85 C74.3978722,99.2200119 71.3529027,100.405 67.7378846,100.405 C64.1228665,100.405 61.1453963,99.2275118 58.8053846,96.8725 Z M75.3203846,87.58 C75.3203846,84.9099867 74.5928919,82.8325074 73.1378846,81.3475 C71.6828773,79.8624926 69.920395,79.12 67.8503846,79.12 C65.7803743,79.12 64.0403917,79.8624926 62.6303846,81.3475 C61.2203776,82.8325074 60.5153846,84.9174866 60.5153846,87.6025 C60.5153846,90.2875134 61.2053777,92.3724926 62.5853846,93.8575 C63.9653915,95.3425074 65.6828743,96.085 67.7378846,96.085 C69.7928949,96.085 71.5703771,95.3350075 73.0703846,93.835 C74.5703921,92.3349925 75.3203846,90.2500134 75.3203846,87.58 Z M85.5838461,100 L85.5838461,66.7 L90.7138461,66.7 L90.7138461,100 L85.5838461,100 Z M114.702308,75.205 L119.832308,75.205 L119.832308,100 L114.702308,100 L114.702308,96.085 C113.0823,98.9350143 110.442326,100.36 106.782308,100.36 C103.992294,100.36 101.689817,99.4375092 99.8748077,97.5925 C98.0597986,95.7474908 97.1523077,93.1600167 97.1523077,89.83 L97.1523077,75.205 L102.237308,75.205 L102.237308,89.065 C102.237308,91.2850111 102.792302,92.9874941 103.902308,94.1725 C105.012313,95.3575059 106.527298,95.95 108.447308,95.95 C110.367317,95.95 111.889802,95.3575059 113.014808,94.1725 C114.139813,92.9874941 114.702308,91.2850111 114.702308,89.065 L114.702308,75.205 Z M128.160769,96.895 C125.910758,94.5549883 124.785769,91.4575193 124.785769,87.6025 C124.785769,83.7474807 125.918258,80.6500117 128.183269,78.31 C130.448281,75.9699883 133.365751,74.8 136.935769,74.8 C139.935784,74.8 142.418259,75.5124929 144.383269,76.9375 C146.348279,78.3625071 147.675766,80.3949868 148.365769,83.035 L142.830769,83.035 C141.900765,80.424987 139.935784,79.12 136.935769,79.12 C134.835759,79.12 133.163275,79.8624926 131.918269,81.3475 C130.673263,82.8325074 130.050769,84.9099867 130.050769,87.58 C130.050769,90.2500134 130.673263,92.3349925 131.918269,93.835 C133.163275,95.3350075 134.835759,96.085 136.935769,96.085 C139.905784,96.085 141.870764,94.7800131 142.830769,92.17 L148.365769,92.17 C147.645766,94.6900126 146.295779,96.6924926 144.315769,98.1775 C142.335759,99.6625074 139.875784,100.405 136.935769,100.405 C133.335751,100.405 130.41078,99.2350117 128.160769,96.895 Z M158.314231,70.975 C157.684228,71.6050032 156.911735,71.92 155.996731,71.92 C155.081726,71.92 154.309234,71.6050032 153.679231,70.975 C153.049228,70.3449969 152.734231,69.5650047 152.734231,68.635 C152.734231,67.7049954 153.049228,66.9250032 153.679231,66.295 C154.309234,65.6649969 155.081726,65.35 155.996731,65.35 C156.911735,65.35 157.684228,65.6649969 158.314231,66.295 C158.944234,66.9250032 159.259231,67.7049954 159.259231,68.635 C159.259231,69.5650047 158.944234,70.3449969 158.314231,70.975 Z M153.409231,100 L153.409231,75.205 L158.539231,75.205 L158.539231,100 L153.409231,100 Z M167.047692,96.8725 C164.707681,94.5174882 163.537692,91.4275191 163.537692,87.6025 C163.537692,83.7774809 164.74518,80.6875118 167.160192,78.3325 C169.575204,75.9774882 172.582674,74.8 176.182692,74.8 C179.78271,74.8 182.79018,75.9774882 185.205192,78.3325 C187.620204,80.6875118 188.827692,83.769981 188.827692,87.58 C188.827692,91.3900191 187.590205,94.4799882 185.115192,96.85 C182.64018,99.2200119 179.59521,100.405 175.980192,100.405 C172.365174,100.405 169.387704,99.2275118 167.047692,96.8725 Z M183.562692,87.58 C183.562692,84.9099867 182.8352,82.8325074 181.380192,81.3475 C179.925185,79.8624926 178.162703,79.12 176.092692,79.12 C174.022682,79.12 172.282699,79.8624926 170.872692,81.3475 C169.462685,82.8325074 168.757692,84.9174866 168.757692,87.6025 C168.757692,90.2875134 169.447685,92.3724926 170.827692,93.8575 C172.207699,95.3425074 173.925182,96.085 175.980192,96.085 C178.035203,96.085 179.812685,95.3350075 181.312692,93.835 C182.8127,92.3349925 183.562692,90.2500134 183.562692,87.58 Z M198.956154,75.205 L198.956154,79.12 C200.606162,76.2399856 203.246136,74.8 206.876154,74.8 C209.666168,74.8 211.968645,75.7299907 213.783654,77.59 C215.598663,79.4500093 216.506154,82.0449834 216.506154,85.375 L216.506154,100 L211.421154,100 L211.421154,86.14 C211.421154,83.9199889 210.866159,82.2175059 209.756154,81.0325 C208.646148,79.8474941 207.131163,79.255 205.211154,79.255 C203.291144,79.255 201.768659,79.8474941 200.643654,81.0325 C199.518648,82.2175059 198.956154,83.9199889 198.956154,86.14 L198.956154,100 L193.826154,100 L193.826154,75.205 L198.956154,75.205 Z M224.609615,96.7825 C222.359604,94.3674879 221.234615,91.2775188 221.234615,87.5125 C221.234615,83.7474812 222.352104,80.6875118 224.587115,78.3325 C226.822127,75.9774882 229.604599,74.8 232.934615,74.8 C234.884625,74.8 236.602108,75.2424956 238.087115,76.1275 C239.572123,77.0125044 240.719611,78.1749928 241.529615,79.615 L241.529615,75.205 L246.704615,75.205 L246.704615,100 L241.529615,100 L241.529615,95.365 C240.689611,96.8950077 239.534623,98.1174954 238.064615,99.0325 C236.594608,99.9475046 234.884625,100.405 232.934615,100.405 C229.634599,100.405 226.859627,99.1975121 224.609615,96.7825 Z M241.529615,87.58 C241.529615,85.0299873 240.787123,83.0050075 239.302115,81.505 C237.817108,80.0049925 236.054626,79.255 234.014615,79.255 C231.974605,79.255 230.212123,79.9899927 228.727115,81.46 C227.242108,82.9300073 226.499615,84.9399873 226.499615,87.49 C226.499615,90.0400128 227.242108,92.0874923 228.727115,93.6325 C230.212123,95.1775077 231.974605,95.95 234.014615,95.95 C236.054626,95.95 237.817108,95.1925076 239.302115,93.6775 C240.787123,92.1624924 241.529615,90.1300127 241.529615,87.58 Z M258.498077,75.205 L258.498077,79.525 C260.088085,76.3749843 262.56306,74.8 265.923077,74.8 L265.923077,80.11 L264.618077,80.11 C262.608067,80.11 261.085582,80.6199949 260.050577,81.64 C259.015572,82.6600051 258.498077,84.4299874 258.498077,86.95 L258.498077,100 L253.368077,100 L253.368077,75.205 L258.498077,75.205 Z M273.824038,70.12 C273.389036,70.5700023 272.849042,70.795 272.204038,70.795 C271.559035,70.795 271.011541,70.5700023 270.561538,70.12 C270.111536,69.6699978 269.886538,69.1225032 269.886538,68.4775 C269.886538,67.8324968 270.111536,67.2850023 270.561538,66.835 C271.011541,66.3849978 271.559035,66.16 272.204038,66.16 C272.849042,66.16 273.389036,66.3849978 273.824038,66.835 C274.259041,67.2850023 274.476538,67.8324968 274.476538,68.4775 C274.476538,69.1225032 274.259041,69.6699978 273.824038,70.12 Z M270.561538,100 L270.561538,75.43 L273.711538,75.43 L273.711538,100 L270.561538,100 Z M282.1075,96.94 C279.902489,94.5999883 278.8,91.532519 278.8,87.7375 C278.8,83.942481 279.969988,80.8675118 282.31,78.5125 C284.650012,76.1574882 287.574982,74.98 291.085,74.98 C294.595018,74.98 297.519988,76.1574882 299.86,78.5125 C302.200012,80.8675118 303.37,83.9274812 303.37,87.6925 C303.37,91.4575188 302.140012,94.5249881 299.68,96.895 C297.219988,99.2650118 294.227518,100.45 290.7025,100.45 C287.177482,100.45 284.312511,99.2800117 282.1075,96.94 Z M297.295,95.185 C299.155009,93.3549908 300.085,90.8575158 300.085,87.6925 C300.085,84.5274842 299.200009,82.0375091 297.43,80.2225 C295.659991,78.4074909 293.500013,77.5 290.95,77.5 C288.399987,77.5 286.270009,78.399991 284.56,80.2 C282.849991,82.000009 281.995,84.5049839 281.995,87.715 C281.995,90.925016 282.804992,93.429991 284.425,95.23 C286.045008,97.030009 288.129987,97.93 290.68,97.93 C293.230013,97.93 295.434991,97.0150091 297.295,95.185 Z M305.267,69.736 L305.267,74.929 C305.267,75.37 305.285,75.622 305.339,75.946 L304.493,75.946 C304.547,75.667 304.565,75.352 304.565,74.929 L304.565,69.736 L303.161,69.736 C302.702,69.736 302.423,69.754 302.126,69.799 L302.126,69.043 C302.441,69.088 302.675,69.106 303.152,69.106 L306.662,69.106 C307.184,69.106 307.427,69.088 307.724,69.043 L307.724,69.799 C307.427,69.754 307.166,69.736 306.662,69.736 L305.267,69.736 Z M311.414692,75.001 L309.605692,70.987 C309.470692,70.699 309.371692,70.42 309.200692,69.871 C309.227692,70.258 309.263692,70.816 309.263692,71.032 L309.263692,74.884 C309.263692,75.361 309.281692,75.64 309.335692,75.946 L308.516692,75.946 C308.570692,75.613 308.588692,75.352 308.588692,74.884 L308.588692,70.177 C308.588692,69.727 308.570692,69.439 308.516692,69.106 L309.560692,69.106 C309.614692,69.376 309.722692,69.7 309.857692,69.997 L312.080692,74.956 L314.294692,69.997 C314.447692,69.646 314.546692,69.367 314.600692,69.106 L315.635692,69.106 C315.581692,69.448 315.563692,69.709 315.563692,70.177 L315.563692,74.884 C315.563692,75.379 315.581692,75.622 315.635692,75.946 L314.816692,75.946 C314.870692,75.64 314.888692,75.316 314.888692,74.884 L314.888692,70.978 C314.888692,70.726 314.915692,70.24 314.951692,69.871 C314.861692,70.24 314.735692,70.6 314.564692,70.969 L312.728692,75.01 C312.548692,75.415 312.458692,75.649 312.386692,75.946 L311.747692,75.946 C311.702692,75.712 311.594692,75.406 311.414692,75.001 Z" id="path-1"></path>
        <filter x="-0.8%" y="-1.5%" width="101.6%" height="106.0%" filterUnits="objectBoundingBox" id="filter-2">
            <feOffset dx="0" dy="2" in="SourceAlpha" result="shadowOffsetOuter1"></feOffset>
            <feGaussianBlur stdDeviation="0.5" in="shadowOffsetOuter1" result="shadowBlurOuter1"></feGaussianBlur>
            <feColorMatrix values="0 0 0 0 0   0 0 0 0 0   0 0 0 0 0  0 0 0 0.28 0" type="matrix" in="shadowBlurOuter1"></feColorMatrix>
        </filter>
    </defs>
    <g id="Page-1" stroke="none" stroke-width="1" fill="none" fill-rule="evenodd">
        <g id="Combined-Shape">
            <use fill="black" fill-opacity="1" filter="url(#filter-2)" xlink:href="#path-1"></use>
            <use fill="#FFFFFF" fill-rule="evenodd" xlink:href="#path-1"></use>
        </g>
    </g>
</svg>