<?xml version="1.0" encoding="UTF-8"?>
<svg width="245px" height="31px" viewBox="0 0 245 31" version="1.1" xmlns="http://www.w3.org/2000/svg" xmlns:xlink="http://www.w3.org/1999/xlink">
    <!-- Generator: Sketch 43.1 (39012) - http://www.bohemiancoding.com/sketch -->
    <title>Combined Shape</title>
    <desc>Created with Sketch.</desc>
    <defs>
        <path d="M76.608,4.368 L76.608,6.096 L69.984,6.096 L69.984,11.76 L75.888,11.76 L75.888,13.464 L69.984,13.464 L69.984,19.272 L76.608,19.272 L76.608,21 L67.8,21 L67.8,4.368 L76.608,4.368 Z M79.8738462,21 L79.8738462,3.24 L82.0578462,3.24 L82.0578462,21 L79.8738462,21 Z M84.8676923,11.592 C84.8676923,10.4399942 85.3556874,9.47200392 86.3316923,8.688 C87.3076972,7.90399608 88.6036842,7.512 90.2196923,7.512 C91.8357004,7.512 93.1316874,7.89999612 94.1076923,8.676 C95.0836972,9.45200388 95.603692,10.5039934 95.6676923,11.832 L92.2116923,11.832 C92.1156918,10.7119944 91.4276987,10.152 90.1476923,10.152 C89.5076891,10.152 89.0116941,10.2799987 88.6596923,10.536 C88.3076905,10.7920013 88.1316923,11.1439978 88.1316923,11.592 C88.1316923,12.0400022 88.3956897,12.3919987 88.9236923,12.648 C89.4516949,12.9040013 90.0916885,13.1039993 90.8436923,13.248 C91.5956961,13.3920007 92.3436886,13.5719989 93.0876923,13.788 C93.831696,14.0040011 94.4676897,14.3879972 94.9956923,14.94 C95.5236949,15.4920028 95.7876923,16.2239954 95.7876923,17.136 C95.7876923,18.336006 95.2796974,19.3119962 94.2636923,20.064 C93.2476872,20.8160038 91.9517002,21.192 90.3756923,21.192 C88.7996844,21.192 87.5076973,20.8200037 86.4996923,20.076 C85.4916873,19.3319963 84.9396928,18.264007 84.8436923,16.872 L88.2996923,16.872 C88.4276929,17.9920056 89.1396858,18.552 90.4356923,18.552 C91.0596954,18.552 91.5636904,18.4120014 91.9476923,18.132 C92.3316942,17.8519986 92.5236923,17.4840023 92.5236923,17.028 C92.5236923,16.5719977 92.2596949,16.2120013 91.7316923,15.948 C91.2036897,15.6839987 90.5636961,15.4800007 89.8116923,15.336 C89.0596885,15.1919993 88.311696,15.016001 87.5676923,14.808 C86.8236886,14.599999 86.1876949,14.2280027 85.6596923,13.692 C85.1316897,13.1559973 84.8676923,12.4560043 84.8676923,11.592 Z M106.961538,17.292 C107.641542,16.5959965 107.981538,15.6120064 107.981538,14.34 C107.981538,13.0679936 107.645542,12.0880034 106.973538,11.4 C106.301535,10.7119966 105.489543,10.368 104.537538,10.368 C103.585534,10.368 102.781542,10.7119966 102.125538,11.4 C101.469535,12.0880034 101.141538,13.0719936 101.141538,14.352 C101.141538,15.6320064 101.469535,16.6159966 102.125538,17.304 C102.781542,17.9920034 103.581534,18.336 104.525538,18.336 C105.469543,18.336 106.281535,17.9880035 106.961538,17.292 Z M97.7095385,14.328 C97.7095385,12.2799898 98.3655319,10.6320062 99.6775385,9.384 C100.989545,8.13599376 102.617529,7.512 104.561538,7.512 C106.505548,7.512 108.133532,8.13599376 109.445538,9.384 C110.757545,10.6320062 111.413538,12.2799898 111.413538,14.328 C111.413538,16.3760102 110.753545,18.0319937 109.433538,19.296 C108.113532,20.5600063 106.477548,21.192 104.525538,21.192 C102.573529,21.192 100.949545,20.5600063 99.6535385,19.296 C98.357532,18.0319937 97.7095385,16.3760102 97.7095385,14.328 Z M114.055385,21 L114.055385,3.24 L117.439385,3.24 L117.439385,21 L114.055385,21 Z M130.161231,7.704 L133.545231,7.704 L133.545231,21 L130.161231,21 L130.161231,18.984 C129.313227,20.4400073 127.92924,21.168 126.009231,21.168 C124.505223,21.168 123.273236,20.668005 122.313231,19.668 C121.353226,18.667995 120.873231,17.2800089 120.873231,15.504 L120.873231,7.704 L124.233231,7.704 L124.233231,15.024 C124.233231,16.0640052 124.497228,16.8639972 125.025231,17.424 C125.553233,17.9840028 126.273226,18.264 127.185231,18.264 C128.097235,18.264 128.821228,17.9840028 129.357231,17.424 C129.893233,16.8639972 130.161231,16.0640052 130.161231,15.024 L130.161231,7.704 Z M136.163077,14.352 C136.163077,12.2879897 136.771071,10.6320062 137.987077,9.384 C139.203083,8.13599376 140.779067,7.512 142.715077,7.512 C144.331085,7.512 145.683071,7.90399608 146.771077,8.688 C147.859082,9.47200392 148.587075,10.5839928 148.955077,12.024 L145.307077,12.024 C144.875075,10.9199945 144.011083,10.368 142.715077,10.368 C141.739072,10.368 140.97508,10.7239964 140.423077,11.436 C139.871074,12.1480036 139.595077,13.1199938 139.595077,14.352 C139.595077,15.5840062 139.871074,16.5559964 140.423077,17.268 C140.97508,17.9800036 141.739072,18.336 142.715077,18.336 C143.995083,18.336 144.859075,17.7760056 145.307077,16.656 L148.955077,16.656 C148.571075,18.048007 147.831082,19.1519959 146.735077,19.968 C145.639071,20.7840041 144.299085,21.192 142.715077,21.192 C140.779067,21.192 139.203083,20.5680062 137.987077,19.32 C136.771071,18.0719938 136.163077,16.4160103 136.163077,14.352 Z M154.596923,5.784 C154.196921,6.184002 153.712926,6.384 153.144923,6.384 C152.57692,6.384 152.092925,6.184002 151.692923,5.784 C151.292921,5.383998 151.092923,4.89600288 151.092923,4.32 C151.092923,3.74399712 151.292921,3.256002 151.692923,2.856 C152.092925,2.455998 152.57692,2.256 153.144923,2.256 C153.712926,2.256 154.196921,2.455998 154.596923,2.856 C154.996925,3.256002 155.196923,3.74399712 155.196923,4.32 C155.196923,4.89600288 154.996925,5.383998 154.596923,5.784 Z M151.452923,21 L151.452923,7.704 L154.836923,7.704 L154.836923,21 L151.452923,21 Z M166.730769,17.292 C167.410773,16.5959965 167.750769,15.6120064 167.750769,14.34 C167.750769,13.0679936 167.414773,12.0880034 166.742769,11.4 C166.070766,10.7119966 165.258774,10.368 164.306769,10.368 C163.354764,10.368 162.550773,10.7119966 161.894769,11.4 C161.238766,12.0880034 160.910769,13.0719936 160.910769,14.352 C160.910769,15.6320064 161.238766,16.6159966 161.894769,17.304 C162.550773,17.9920034 163.350765,18.336 164.294769,18.336 C165.238774,18.336 166.050766,17.9880035 166.730769,17.292 Z M157.478769,14.328 C157.478769,12.2799898 158.134763,10.6320062 159.446769,9.384 C160.758776,8.13599376 162.38676,7.512 164.330769,7.512 C166.274779,7.512 167.902763,8.13599376 169.214769,9.384 C170.526776,10.6320062 171.182769,12.2799898 171.182769,14.328 C171.182769,16.3760102 170.522776,18.0319937 169.202769,19.296 C167.882763,20.5600063 166.246779,21.192 164.294769,21.192 C162.342759,21.192 160.718776,20.5600063 159.422769,19.296 C158.126763,18.0319937 157.478769,16.3760102 157.478769,14.328 Z M177.208615,7.704 L177.208615,9.696 C178.05662,8.23999272 179.432606,7.512 181.336615,7.512 C182.856623,7.512 184.096611,8.011995 185.056615,9.012 C186.01662,10.012005 186.496615,11.3999911 186.496615,13.176 L186.496615,21 L183.136615,21 L183.136615,13.656 C183.136615,12.6159948 182.872618,11.8200028 182.344615,11.268 C181.816613,10.7159972 181.09662,10.44 180.184615,10.44 C179.272611,10.44 178.548618,10.7159972 178.012615,11.268 C177.476613,11.8200028 177.208615,12.6159948 177.208615,13.656 L177.208615,21 L173.824615,21 L173.824615,7.704 L177.208615,7.704 Z M199.458462,14.352 C199.458462,13.1359939 199.106465,12.1800035 198.402462,11.484 C197.698458,10.7879965 196.874466,10.44 195.930462,10.44 C194.986457,10.44 194.166465,10.7839966 193.470462,11.472 C192.774458,12.1600034 192.426462,13.1119939 192.426462,14.328 C192.426462,15.5440061 192.778458,16.5039965 193.482462,17.208 C194.186465,17.9120035 195.006457,18.264 195.942462,18.264 C196.878466,18.264 197.698458,17.9160035 198.402462,17.22 C199.106465,16.5239965 199.458462,15.5680061 199.458462,14.352 Z M188.994462,14.328 C188.994462,12.32799 189.586456,10.6920064 190.770462,9.42 C191.954467,8.14799364 193.458452,7.512 195.282462,7.512 C197.106471,7.512 198.498457,8.26399248 199.458462,9.768 L199.458462,7.704 L202.818462,7.704 L202.818462,21 L199.458462,21 L199.458462,18.768 C198.450456,20.3840081 197.05047,21.192 195.258462,21.192 C193.466453,21.192 191.974467,20.5480064 190.782462,19.26 C189.590456,17.9719936 188.994462,16.32801 188.994462,14.328 Z M209.756308,7.704 L209.756308,10.056 C210.652312,8.35999152 211.948299,7.512 213.644308,7.512 L213.644308,10.968 L212.804308,10.968 C211.796303,10.968 211.03631,11.2199975 210.524308,11.724 C210.012305,12.2280025 209.756308,13.0959938 209.756308,14.328 L209.756308,21 L206.372308,21 L206.372308,7.704 L209.756308,7.704 Z M217.102154,5.712 C216.686152,5.712 216.338155,5.56800144 216.058154,5.28 C215.778152,4.99199856 215.638154,4.64000208 215.638154,4.224 C215.638154,3.80799792 215.782152,3.45600144 216.070154,3.168 C216.358155,2.87999856 216.706152,2.736 217.114154,2.736 C217.522156,2.736 217.870152,2.87999856 218.158154,3.168 C218.446155,3.45600144 218.590154,3.80799792 218.590154,4.224 C218.590154,4.64000208 218.446155,4.99199856 218.158154,5.28 C217.870152,5.56800144 217.518156,5.712 217.102154,5.712 Z M215.998154,21 L215.998154,7.824 L218.182154,7.824 L218.182154,21 L215.998154,21 Z M230.556,18.084 C231.460005,17.1959956 231.912,15.9680078 231.912,14.4 C231.912,12.8319922 231.480004,11.6080044 230.616,10.728 C229.751996,9.8479956 228.700006,9.408 227.46,9.408 C226.219994,9.408 225.184004,9.8479956 224.352,10.728 C223.519996,11.6080044 223.104,12.8359921 223.104,14.412 C223.104,15.9880079 223.503996,17.2159956 224.304,18.096 C225.104004,18.9760044 226.119994,19.416 227.352,19.416 C228.584006,19.416 229.651995,18.9720044 230.556,18.084 Z M220.872,14.424 C220.872,12.3919898 221.503994,10.7480063 222.768,9.492 C224.032006,8.23599372 225.61599,7.608 227.52,7.608 C229.42401,7.608 231.007994,8.23599372 232.272,9.492 C233.536006,10.7480063 234.168,12.3879899 234.168,14.412 C234.168,16.4360101 233.508007,18.0759937 232.188,19.332 C230.867993,20.5880063 229.25601,21.216 227.352,21.216 C225.44799,21.216 223.892006,20.5920062 222.684,19.344 C221.475994,18.0959938 220.872,16.4560102 220.872,14.424 Z M236.178,3.824 L236.178,7.286 C236.178,7.58 236.19,7.748 236.226,7.964 L235.662,7.964 C235.698,7.778 235.71,7.568 235.71,7.286 L235.71,3.824 L234.774,3.824 C234.468,3.824 234.282,3.836 234.084,3.866 L234.084,3.362 C234.294,3.392 234.45,3.404 234.768,3.404 L237.108,3.404 C237.456,3.404 237.618,3.392 237.816,3.362 L237.816,3.866 C237.618,3.836 237.444,3.824 237.108,3.824 L236.178,3.824 Z M240.276462,7.334 L239.070462,4.658 C238.980462,4.466 238.914462,4.28 238.800462,3.914 C238.818462,4.172 238.842462,4.544 238.842462,4.688 L238.842462,7.256 C238.842462,7.574 238.854462,7.76 238.890462,7.964 L238.344462,7.964 C238.380462,7.742 238.392462,7.568 238.392462,7.256 L238.392462,4.118 C238.392462,3.818 238.380462,3.626 238.344462,3.404 L239.040462,3.404 C239.076462,3.584 239.148462,3.8 239.238462,3.998 L240.720462,7.304 L242.196462,3.998 C242.298462,3.764 242.364462,3.578 242.400462,3.404 L243.090462,3.404 C243.054462,3.632 243.042462,3.806 243.042462,4.118 L243.042462,7.256 C243.042462,7.586 243.054462,7.748 243.090462,7.964 L242.544462,7.964 C242.580462,7.76 242.592462,7.544 242.592462,7.256 L242.592462,4.652 C242.592462,4.484 242.610462,4.16 242.634462,3.914 C242.574462,4.16 242.490462,4.4 242.376462,4.646 L241.152462,7.34 C241.032462,7.61 240.972462,7.766 240.924462,7.964 L240.498462,7.964 C240.468462,7.808 240.396462,7.604 240.276462,7.334 Z M54.9449954,11.3455499 C54.9449954,17.5209283 50.0114267,22.5450082 43.9471532,22.5450082 L2.69731176,22.5450082 C1.75995289,22.5450082 1,21.7711132 1,20.8165576 C1,19.8618516 1.75995289,19.0881069 2.69731176,19.0881069 L43.9471532,19.0881069 C46.108938,19.0881069 48.0611417,18.1630101 49.4468861,16.6833061 L9.19137414,16.6833061 C8.6207822,16.6833061 8.15822785,16.2122657 8.15822785,15.6312057 C8.15822785,15.0499954 8.6207822,14.5791053 9.19137414,14.5791053 L50.8528506,14.5791053 C51.1710596,13.8775046 51.3883155,13.1198421 51.48735,12.3246045 L6.09193527,12.3246045 C5.52134334,12.3246045 5.05878899,11.8535641 5.05878899,11.2725041 C5.05878899,10.6912938 5.52134334,10.2204037 6.09193527,10.2204037 L51.48735,10.2204037 C51.3812311,9.3683527 51.140508,8.55853601 50.7843677,7.81560284 L9.19137414,7.81560284 C8.6207822,7.81560284 8.15822785,7.34456247 8.15822785,6.76350245 C8.15822785,6.18229214 8.6207822,5.71140207 9.19137414,5.71140207 L49.3046071,5.71140207 C47.9291942,4.31887207 46.0352894,3.45690125 43.9471532,3.45690125 L20.1132063,3.45690125 C19.1758474,3.45690125 18.4158946,2.68300627 18.4158946,1.72845063 C18.4158946,0.773744681 19.1758474,0 20.1132063,0 L43.9471532,0 C50.0114267,0 54.9449954,5.02392962 54.9449954,11.199308 L54.9449954,11.3455499 Z M57.6054062,25.0962314 C58.2921533,25.7957278 58.2921533,26.9297417 57.6054062,27.6293885 C57.2619588,27.9791367 56.8118022,28.1539357 56.3616456,28.1539357 C55.911489,28.1539357 55.46148,27.9791367 55.1178851,27.6293885 L51.3204821,23.7621681 C50.633735,23.0626716 50.633735,21.9286577 51.3204821,21.2291613 C52.0073768,20.5295145 53.1209609,20.5295145 53.8080032,21.2291613 L57.6054062,25.0962314 Z" id="path-1"></path>
        <filter x="-0.8%" y="-3.6%" width="101.7%" height="114.2%" filterUnits="objectBoundingBox" id="filter-2">
            <feOffset dx="0" dy="1" in="SourceAlpha" result="shadowOffsetOuter1"></feOffset>
            <feGaussianBlur stdDeviation="0.5" in="shadowOffsetOuter1" result="shadowBlurOuter1"></feGaussianBlur>
            <feColorMatrix values="0 0 0 0 0   0 0 0 0 0   0 0 0 0 0  0 0 0 0.183537138 0" type="matrix" in="shadowBlurOuter1"></feColorMatrix>
        </filter>
    </defs>
    <g id="Page-1" stroke="none" stroke-width="1" fill="none" fill-rule="evenodd">
        <g id="Combined-Shape">
            <use fill="black" fill-opacity="1" filter="url(#filter-2)" xlink:href="#path-1"></use>
            <use fill="#FFFFFF" fill-rule="evenodd" xlink:href="#path-1"></use>
        </g>
    </g>
</svg>